<svg height="512" viewBox="0 0 128 128" width="512" xmlns="http://www.w3.org/2000/svg"><path d="m119.37 23.414h-58.042a5.324 5.324 0 0 1 -4.377-2.292l-2.581-3.722a7.459 7.459 0 0 0 -6.132-3.213h-35.672a5 5 0 0 0 -5 5v93.829a5 5 0 0 0 5 5h106.8a5 5 0 0 0 5-5v-84.6a5 5 0 0 0 -4.996-5.002z" fill="#e6e7e8"/><path d="m4.63 33h114.675a0 0 0 0 1 0 0v75.687a4 4 0 0 1 -4 4h-106.675a4 4 0 0 1 -4-4v-75.687a0 0 0 0 1 0 0z" fill="#d4fbff"/><path d="m50.327 82.683v.067a3.887 3.887 0 0 1 -5.427 3.567l-21.9-9.493a5.577 5.577 0 0 1 -3.359-5.117v-.06a5.579 5.579 0 0 1 3.359-5.118l21.9-9.492a3.887 3.887 0 0 1 5.427 3.563v.106a3.886 3.886 0 0 1 -2.489 3.627l-18.9 7.28 18.924 7.451a3.886 3.886 0 0 1 2.465 3.619z" fill="#fa759e"/><path d="m67.633 48.27a3.611 3.611 0 0 0 -4.36 2.661l-9.631 39.8a3.612 3.612 0 1 0 7.021 1.7l9.63-39.8a3.614 3.614 0 0 0 -2.66-4.361z" fill="#fa759e"/><path d="m100.951 76.747-21.9 9.537a3.887 3.887 0 0 1 -5.439-3.563v-.054a3.887 3.887 0 0 1 2.467-3.618l18.979-7.449-18.965-7.342a3.886 3.886 0 0 1 -2.485-3.625 3.887 3.887 0 0 1 5.427-3.569l21.9 9.448a5.578 5.578 0 0 1 3.368 5.121 5.577 5.577 0 0 1 -3.352 5.114z" fill="#fa759e"/><path d="m115.305 109.687h-106.675a4 4 0 0 1 -4-4v3a4 4 0 0 0 4 4h106.675a4 4 0 0 0 4-4v-3a4 4 0 0 1 -4 4z" fill="#fff"/><path d="m52.074 17.466-2.574-3.725a6.391 6.391 0 0 0 -5.254-2.753h-35.616a4 4 0 0 0 -4 4v18.012h114.675v-8.781a4 4 0 0 0 -4-4h-57.977a6.39 6.39 0 0 1 -5.254-2.753z" fill="#6dc9f7"/><g fill="#3a2c60"><path d="m49.122 56.518a4.87 4.87 0 0 0 -4.625-.4l-21.897 9.494a6.623 6.623 0 0 0 0 12.13l21.9 9.492a4.886 4.886 0 0 0 6.83-4.483v-.068a4.861 4.861 0 0 0 -3.1-4.547l-16.53-6.509 16.5-6.358a4.916 4.916 0 0 0 3.13-4.56v-.109a4.873 4.873 0 0 0 -2.208-4.082zm.2 4.191a2.9 2.9 0 0 1 -1.843 2.691l-18.9 7.28a1 1 0 0 0 -.007 1.864l18.928 7.456a2.868 2.868 0 0 1 1.829 2.685v.068a2.886 2.886 0 0 1 -4.037 2.647l-21.9-9.492a4.623 4.623 0 0 1 0-8.46l21.9-9.492a2.91 2.91 0 0 1 1.156-.244 2.9 2.9 0 0 1 2.879 2.888z"/><path d="m67.868 47.3a4.611 4.611 0 0 0 -5.568 3.4l-9.629 39.79a4.611 4.611 0 1 0 8.963 2.169l9.631-39.794a4.615 4.615 0 0 0 -3.4-5.567zm1.453 5.1-9.63 39.8a2.631 2.631 0 0 1 -3.153 1.923 2.613 2.613 0 0 1 -1.924-3.152l9.63-39.794a2.608 2.608 0 0 1 3.156-1.936 2.616 2.616 0 0 1 1.923 3.153z"/><path d="m101.33 65.594-21.9-9.447a4.886 4.886 0 1 0 -3.7 9.043l16.57 6.41-16.6 6.515a4.912 4.912 0 1 0 3.746 9.085l21.9-9.537a6.577 6.577 0 0 0 -.02-12.07zm-.779 10.236-21.9 9.537a2.911 2.911 0 1 1 -2.211-5.387l18.983-7.454a1 1 0 0 0 0-1.863l-18.97-7.338a2.9 2.9 0 0 1 -1.844-2.692 2.9 2.9 0 0 1 2.877-2.892 2.914 2.914 0 0 1 1.152.241l21.9 9.448a4.577 4.577 0 0 1 .014 8.4z"/><path d="m115.305 19.219h-57.977a5.391 5.391 0 0 1 -4.428-2.319l-2.578-3.726a7.4 7.4 0 0 0 -6.082-3.186h-35.61a5.006 5.006 0 0 0 -5 5v93.7a5.006 5.006 0 0 0 5 5h106.675a5.006 5.006 0 0 0 5-5v-84.469a5.006 5.006 0 0 0 -5-5zm0 92.468h-106.675a3 3 0 0 1 -3-3v-74.687h52.1a1 1 0 0 0 0-2h-52.1v-17.012a3 3 0 0 1 3-3h35.61a5.393 5.393 0 0 1 4.433 2.322l2.578 3.725a7.394 7.394 0 0 0 6.077 3.184h57.977a3 3 0 0 1 3 3v7.781h-39.461a1 1 0 0 0 0 2h39.461v74.687a3 3 0 0 1 -3 3z"/><path d="m61.968 34h12.641a1 1 0 0 0 0-2h-12.641a1 1 0 0 0 0 2z"/></g><circle cx="40.249" cy="22.416" fill="#fff" r="3.257"/><circle cx="28.417" cy="22.416" fill="#d4fbff" r="3.257"/><circle cx="16.586" cy="22.416" fill="#fa759e" r="3.257"/></svg>