<svg id="Capa_1" enable-background="new 0 0 511.05 511.05" height="512" viewBox="0 0 511.05 511.05" width="512" xmlns="http://www.w3.org/2000/svg"><g><path d="m.525 257.05h158v254h-158z" fill="#ffb454"/><path d="m352.525 257.05h158v254h-158z" fill="#ff7d47"/><path d="m128.525 185.05h254v326h-254z" fill="#ffe278"/><path d="m255.525 177.05h127v334h-127z" fill="#ffb454"/><path d="m366.525.05v79.64h-119.787l3.574-73.959 19.853-5.681z" fill="#c40048"/><path d="m270.525 120-30 .1-.36-120 15.36-.05 14.64-.05z" fill="#696e73"/><path d="m270.525 120-15 .05v-120l14.64-.05z" fill="#4b5055"/><path d="m399.525 177.05v30h-288v-30h27.59l116.41-74.83 116.41 74.83z" fill="#e40058"/><path d="m399.525 177.05v30h-144v-104.83l116.41 74.83z" fill="#c40048"/><g fill="#f7f9fa"><path d="m64.525 400.05h30v48h-30z"/><path d="m64.525 320.05h30v48h-30z"/><path d="m200.525 320.05h30v48h-30z"/></g><path d="m280.525 320.05h30v48h-30z" fill="#e5eaee"/><path d="m200.525 240.05h30v48h-30z" fill="#f7f9fa"/><path d="m280.525 240.05h30v48h-30z" fill="#e5eaee"/><path d="m200.525 400.05h30v48h-30z" fill="#f7f9fa"/><path d="m280.525 400.05h30v48h-30z" fill="#e5eaee"/><path d="m416.525 400.05h30v48h-30z" fill="#e5eaee"/><path d="m416.525 320.05h30v48h-30z" fill="#e5eaee"/></g></svg>